<svg width="14" height="14" viewBox="0 0 14 14" fill="none" xmlns="http://www.w3.org/2000/svg">
<g clip-path="url(#clip0_2893_4011)">
<path d="M7 0C10.8663 0 14 3.13428 14 7C14 10.8663 10.8663 14 7 14C3.13428 14 0 10.866 0 7C0 3.13428 3.13428 0 7 0Z" fill="#F5AC37"/>
<path d="M7.25958 7.49381H9.91946C9.97616 7.49381 10.0029 7.49381 10.007 7.41947C10.0288 7.14888 10.0288 6.87672 10.007 6.60582C10.007 6.55321 9.98089 6.53147 9.92387 6.53147H4.63024C4.56472 6.53147 4.54708 6.55321 4.54708 6.61464V7.39332C4.54708 7.49381 4.54708 7.49381 4.65198 7.49381H7.25958ZM9.70999 5.62143C9.71755 5.60159 9.71755 5.57985 9.70999 5.56032C9.66557 5.46361 9.61296 5.37132 9.55185 5.28469C9.45987 5.13664 9.35151 5.00024 9.22803 4.87771C9.16975 4.80368 9.10234 4.73722 9.02674 4.68083C8.64811 4.35858 8.19797 4.13052 7.71412 4.01586C7.47 3.96105 7.22051 3.9349 6.9704 3.93711H4.62111C4.55559 3.93711 4.54677 3.96325 4.54677 4.02027V5.57324C4.54677 5.63876 4.54677 5.6564 4.62993 5.6564H9.67848C9.67848 5.6564 9.72227 5.64758 9.73109 5.62143H9.70967H9.70999ZM9.70999 8.40385C9.63564 8.39566 9.56067 8.39566 9.48633 8.40385H4.63465C4.56913 8.40385 4.54708 8.40385 4.54708 8.49142V10.0097C4.54708 10.0797 4.54708 10.0973 4.63465 10.0973H6.87464C6.98174 10.1055 7.08884 10.0979 7.19374 10.0756C7.51882 10.0523 7.83855 9.9817 8.14347 9.86547C8.25436 9.82704 8.36146 9.77695 8.46257 9.71679H8.49313C9.01824 9.44368 9.44475 9.01464 9.71377 8.48796C9.71377 8.48796 9.74432 8.42181 9.70999 8.40448V8.40385ZM3.66791 10.8845V10.8584V9.83901V9.49345V8.46528C3.66791 8.40826 3.66791 8.39976 3.59798 8.39976H2.64856C2.59595 8.39976 2.57422 8.39976 2.57422 8.32983V7.49853H3.58916C3.64586 7.49853 3.66791 7.49853 3.66791 7.42419V6.60172C3.66791 6.54911 3.66791 6.5362 3.59798 6.5362H2.64856C2.59595 6.5362 2.57422 6.5362 2.57422 6.46627V5.6964C2.57422 5.64821 2.57422 5.63529 2.64415 5.63529H3.58475C3.65027 5.63529 3.66791 5.63529 3.66791 5.55213V3.19402C3.66791 3.12409 3.66791 3.10645 3.75548 3.10645H7.03655C7.2747 3.1159 7.51126 3.14204 7.74531 3.1852C8.22758 3.27434 8.69095 3.44665 9.11463 3.69267C9.39561 3.85804 9.65423 4.05776 9.8845 4.28771C10.0577 4.46757 10.214 4.66225 10.3526 4.86952C10.4902 5.07963 10.6046 5.30422 10.6944 5.5389C10.7054 5.60001 10.764 5.64128 10.8251 5.63088H11.6082C11.7087 5.63088 11.7087 5.63088 11.7131 5.72727V6.44485C11.7131 6.51478 11.6869 6.53242 11.6167 6.53242H11.0128C10.9517 6.53242 10.9341 6.53242 10.9385 6.61117C10.9624 6.87766 10.9624 7.1451 10.9385 7.41159C10.9385 7.48593 10.9385 7.49475 11.022 7.49475H11.7128C11.7433 7.53413 11.7128 7.5735 11.7128 7.6132C11.7172 7.66391 11.7172 7.71526 11.7128 7.76597V8.29549C11.7128 8.36983 11.691 8.39188 11.6252 8.39188H10.7983C10.7407 8.38086 10.6846 8.41771 10.6714 8.47504C10.4745 8.98692 10.1595 9.44588 9.75251 9.81381C9.60383 9.94768 9.44759 10.0737 9.28442 10.1899C9.10927 10.2907 8.93886 10.3956 8.75931 10.4788C8.42887 10.6275 8.08236 10.7371 7.72673 10.8067C7.38904 10.8672 7.04663 10.8946 6.70297 10.8899H3.66665V10.8854L3.66791 10.8845Z" fill="#FEFEFD"/>
</g>
<defs>
<clipPath id="clip0_2893_4011">
<rect width="14" height="14" fill="white"/>
</clipPath>
</defs>
</svg>
