<svg width="14" height="14" viewBox="0 0 14 14" fill="none" xmlns="http://www.w3.org/2000/svg">
<g clip-path="url(#clip0_2893_4015)">
<path d="M7 14C10.866 14 14 10.866 14 7C14 3.13401 10.866 0 7 0C3.13401 0 0 3.13401 0 7C0 10.866 3.13401 14 7 14Z" fill="#f0f0f0"/>
<path d="M6.99941 2.5L6.9375 2.7051V8.6561L6.99941 8.71634L9.8315 7.0835L6.99941 2.5Z" fill="#343434"/>
<path d="M7.00013 2.5L4.16797 7.0835L7.00013 8.71634V5.82789V2.5Z" fill="#8C8C8C"/>
<path d="M6.99973 9.23942L6.96484 9.28091V11.4008L6.99973 11.5001L9.83356 7.60742L6.99973 9.23942Z" fill="#3C3C3B"/>
<path d="M7.00013 11.5001V9.23942L4.16797 7.60742L7.00013 11.5001Z" fill="#8C8C8C"/>
<path d="M7 8.71658L9.83209 7.08373L7 5.82812V8.71658Z" fill="#141414"/>
<path d="M4.16797 7.08373L7.00013 8.71658V5.82812L4.16797 7.08373Z" fill="#393939"/>
</g>
<defs>
<clipPath id="clip0_2893_4015">
<rect width="14" height="14" fill="white"/>
</clipPath>
</defs>
</svg>
