<svg width="14" height="14" viewBox="0 0 14 14" fill="none" xmlns="http://www.w3.org/2000/svg">
<g clip-path="url(#clip0_2888_4007)">
<path d="M7 14C10.866 14 14 10.866 14 7C14 3.13401 10.866 0 7 0C3.13401 0 0 3.13401 0 7C0 10.866 3.13401 14 7 14Z" fill="#FF4A4A"/>
<path fill-rule="evenodd" clip-rule="evenodd" d="M3.95461 4.2002L10.1953 4.2003C10.4463 4.2003 10.6499 4.40439 10.6499 4.65611V9.80835C10.6499 9.99718 10.4971 10.1502 10.3089 10.1502H9.30636C9.11802 10.1502 8.96539 9.99718 8.96539 9.80835V6.11711C8.96539 5.99129 8.86354 5.88919 8.73807 5.88919L5.41181 5.88909C5.28633 5.88909 5.18451 5.99108 5.18451 6.11697V9.80835C5.18451 9.99718 5.03185 10.1502 4.84355 10.1502H3.84097C3.65264 10.1502 3.5 9.99718 3.5 9.80835V4.656C3.5 4.40428 3.70356 4.2002 3.95461 4.2002Z" fill="white"/>
<path fill-rule="evenodd" clip-rule="evenodd" d="M6.23242 7.33176V8.34609C6.23242 8.53362 6.3852 8.68566 6.57371 8.68566H7.57618C7.76469 8.68566 7.91743 8.53362 7.91743 8.34609V7.33176C7.91743 7.14419 7.76469 6.99219 7.57618 6.99219H6.57371C6.3852 6.99219 6.23242 7.14419 6.23242 7.33176Z" fill="white"/>
</g>
<defs>
<clipPath id="clip0_2888_4007">
<rect width="14" height="14" fill="white"/>
</clipPath>
</defs>
</svg>
