<svg width="14" height="14" viewBox="0 0 14 14" fill="none" xmlns="http://www.w3.org/2000/svg">
<g clip-path="url(#clip0_1798_3724)">
<path d="M7 14C10.8792 14 14 10.8792 14 7C14 3.12081 10.8792 0 7 0C3.12081 0 0 3.12081 0 7C0 10.8792 3.12081 14 7 14Z" fill="#2775CA"/>
<path d="M8.92589 8.10859C8.92589 7.08778 8.31339 6.73778 7.08839 6.59197C6.21339 6.47528 6.03839 6.24197 6.03839 5.83359C6.03839 5.42521 6.33008 5.16278 6.91339 5.16278C7.43839 5.16278 7.73008 5.33778 7.87589 5.77528C7.90508 5.86278 7.99258 5.92109 8.08008 5.92109H8.5467C8.66339 5.92109 8.75089 5.83359 8.75089 5.71697V5.68778C8.6342 5.04609 8.1092 4.55028 7.43839 4.49197V3.79197C7.43839 3.67528 7.35089 3.58778 7.20508 3.55859H6.76758C6.65089 3.55859 6.56339 3.64609 6.5342 3.79197V4.46278C5.6592 4.57947 5.10508 5.16278 5.10508 5.89197C5.10508 6.85447 5.68839 7.23359 6.91339 7.37947C7.73008 7.52528 7.99258 7.70028 7.99258 8.16697C7.99258 8.63366 7.5842 8.95447 7.03008 8.95447C6.2717 8.95447 6.0092 8.63359 5.9217 8.19609C5.89258 8.07947 5.80508 8.02109 5.71758 8.02109H5.2217C5.10508 8.02109 5.01758 8.10859 5.01758 8.22528V8.25447C5.1342 8.98359 5.60089 9.50859 6.56339 9.65447V10.3545C6.56339 10.4711 6.65089 10.5586 6.7967 10.5878H7.2342C7.35089 10.5878 7.43839 10.5003 7.46758 10.3545V9.65447C8.34258 9.50859 8.92589 8.89609 8.92589 8.10859Z" fill="white"/>
<path d="M5.51307 11.1711C3.23807 10.3545 2.07138 7.81699 2.91726 5.57111C3.35476 4.34611 4.31726 3.4128 5.51307 2.9753C5.62976 2.91699 5.68807 2.82949 5.68807 2.68361V2.2753C5.68807 2.15861 5.62976 2.07111 5.51307 2.04199C5.48388 2.04199 5.42557 2.04199 5.39638 2.07111C2.62557 2.94611 1.10888 5.89199 1.98388 8.6628C2.50888 10.2961 3.76307 11.5503 5.39638 12.0753C5.51307 12.1336 5.62976 12.0753 5.65888 11.9586C5.68807 11.9295 5.68807 11.9003 5.68807 11.842V11.4336C5.68807 11.3461 5.60057 11.2295 5.51307 11.1711ZM8.60476 2.07111C8.48807 2.0128 8.37138 2.07111 8.34226 2.1878C8.31307 2.21699 8.31307 2.24611 8.31307 2.30449V2.7128C8.31307 2.82949 8.40057 2.94611 8.48807 3.00449C10.7631 3.82111 11.9298 6.35861 11.0839 8.60449C10.6464 9.82949 9.68388 10.7628 8.48807 11.2003C8.37138 11.2586 8.31307 11.3461 8.31307 11.492V11.9003C8.31307 12.017 8.37138 12.1045 8.48807 12.1336C8.51726 12.1336 8.57557 12.1336 8.60476 12.1045C11.3756 11.2295 12.8923 8.28361 12.0173 5.5128C11.4923 3.8503 10.2089 2.59611 8.60476 2.07111Z" fill="white"/>
</g>
<defs>
<clipPath id="clip0_1798_3724">
<rect width="14" height="14" fill="white"/>
</clipPath>
</defs>
</svg>
