<svg width="54" height="54" viewBox="0 0 54 54" fill="none" xmlns="http://www.w3.org/2000/svg">
<rect x="0.5" y="0.5" width="53" height="53" rx="26.5" fill="url(#paint0_linear_1678_3271)" stroke="#413D42"/>
<path d="M39.4984 20.2842L39.4635 34.2709L26.4121 41.7729L26.4156 27.8367L39.4984 20.2842Z" stroke="white" stroke-miterlimit="10" stroke-linecap="round" stroke-linejoin="round"/>
<path d="M26.4122 41.7729L14.0383 34.7098L14 20.6621L26.4157 27.8366L26.4122 41.7729Z" stroke="white" stroke-miterlimit="10" stroke-linejoin="round"/>
<path d="M26.4157 27.8368L14 20.6622L27.0392 13L39.4984 20.2843L26.4157 27.8368Z" stroke="white" stroke-miterlimit="10" stroke-linecap="round" stroke-linejoin="round"/>
<path d="M32.9463 16.5361L19.9785 24.1113" stroke="white" stroke-miterlimit="10"/>
<path d="M35.3244 26.5806L35.3192 26.7914C35.3088 27.2024 35.0841 27.5769 34.727 27.7807L32.2885 29.1689C31.8983 29.3919 31.4141 29.108 31.4141 28.6603V28.4914C31.4141 28.1117 31.6161 27.7616 31.9436 27.5682L34.4727 26.079C34.8559 25.8543 35.3366 26.1364 35.3244 26.5806Z" stroke="white" stroke-miterlimit="10" stroke-linecap="round" stroke-linejoin="round"/>
<defs>
<linearGradient id="paint0_linear_1678_3271" x1="27" y1="0" x2="27" y2="54" gradientUnits="userSpaceOnUse">
<stop stop-color="#322F33"/>
<stop offset="1" stop-color="#322F33" stop-opacity="0"/>
</linearGradient>
</defs>
</svg>
