<svg width="63" height="16" viewBox="0 0 63 16" fill="none" xmlns="http://www.w3.org/2000/svg">
<g clip-path="url(#clip0_1678_2770)">
<path fill-rule="evenodd" clip-rule="evenodd" d="M39.9697 15.6868H37.334C36.8389 15.6868 36.4376 15.2844 36.4376 14.7886V7.8082L31.8111 10.7154C31.423 10.9594 30.9294 10.9594 30.5413 10.7154L25.9147 7.8079V14.7886C25.9147 15.2844 25.5132 15.6868 25.0184 15.6868H22.3827C21.8873 15.6868 21.4863 15.2844 21.4863 14.7886V1.33458C21.4863 0.371204 22.5638 -0.197901 23.3568 0.346656L30.6697 5.36682C30.9748 5.57668 31.3776 5.57668 31.6829 5.36682L38.9953 0.346656C39.7886 -0.198201 40.8661 0.370905 40.8661 1.33428V14.7886C40.8661 15.2844 40.4648 15.6868 39.9697 15.6868Z" fill="white"/>
<path fill-rule="evenodd" clip-rule="evenodd" d="M17.5172 15.5673L1.18946 15.567C0.532581 15.567 0 15.0331 0 14.3745V0.894417C0 0.400401 0.399361 0 0.892096 0H3.51515C4.00759 0 4.40725 0.400401 4.40725 0.894417V11.1483L14.2994 11.1486V0.894417C14.2994 0.400401 14.6985 0 15.1915 0H17.8146C18.307 0 18.7066 0.400401 18.7066 0.894417V14.3748C18.7066 15.0334 18.1741 15.5673 17.5172 15.5673Z" fill="white"/>
<path fill-rule="evenodd" clip-rule="evenodd" d="M44.7988 0L61.1266 0.000298139C61.7835 0.000298139 62.316 0.534265 62.316 1.19285V14.6729C62.316 15.1669 61.9164 15.5673 61.4239 15.5673H58.8009C58.3081 15.5673 57.9088 15.1669 57.9088 14.6729V5.0153C57.9088 4.68615 57.6423 4.41902 57.3141 4.41902L48.6114 4.41872C48.2831 4.41872 48.0166 4.68555 48.0166 5.015V14.6729C48.0166 15.1669 47.6173 15.5673 47.1245 15.5673H44.5015C44.0087 15.5673 43.6094 15.1669 43.6094 14.6729V1.19256C43.6094 0.533967 44.142 0 44.7988 0Z" fill="white"/>
<path fill-rule="evenodd" clip-rule="evenodd" d="M50.7578 8.19314V10.8469C50.7578 11.3377 51.1575 11.7354 51.6507 11.7354H54.2735C54.7667 11.7354 55.1664 11.3377 55.1664 10.8469V8.19314C55.1664 7.70242 54.7667 7.30469 54.2735 7.30469H51.6507C51.1575 7.30469 50.7578 7.70242 50.7578 8.19314Z" fill="white"/>
</g>
<defs>
<clipPath id="clip0_1678_2770">
<rect width="62.3158" height="16" fill="white"/>
</clipPath>
</defs>
</svg>
