<svg width="22" height="22" viewBox="0 0 22 22" fill="none" xmlns="http://www.w3.org/2000/svg">
<circle cx="11" cy="11" r="11" fill="white"/>
<path d="M10.5076 16.182C12.8316 16.182 14.1196 15.132 14.1196 13.354C14.1196 12.22 13.5176 11.436 12.4536 11.086C13.4616 10.778 13.9236 10.106 13.9236 9.182C13.9236 7.488 12.7476 6.522 10.5076 6.522C8.4496 6.522 7.1616 7.586 6.9656 9.588H8.7156C8.8136 8.622 9.2476 8.034 10.4796 8.034C11.5436 8.034 12.1456 8.51 12.1456 9.266V9.294C12.1456 10.064 11.6556 10.484 10.5916 10.484H9.8076V11.982H10.6056C11.8376 11.982 12.2996 12.388 12.2996 13.284V13.34C12.2996 14.18 11.6836 14.67 10.5076 14.67C9.2196 14.67 8.7016 14.152 8.6176 13.144H6.8676C6.9656 15.398 8.4216 16.182 10.5076 16.182Z" fill="#272528"/>
</svg>
