<svg width="84" height="84" viewBox="0 0 84 84" fill="none" xmlns="http://www.w3.org/2000/svg">
<path d="M67.8591 14.4092H16.0293V61.5475H67.8591V14.4092Z" fill="white"/>
<path fill-rule="evenodd" clip-rule="evenodd" d="M83.9156 41.9999C83.9156 65.1652 65.1368 83.944 41.9715 83.944C18.8064 83.944 0.0273438 65.1652 0.0273438 41.9999C0.0273438 18.8347 18.8064 0.0556641 41.9715 0.0556641C65.1368 0.0556641 83.9156 18.8347 83.9156 41.9999ZM30.0857 58.6915H21.9455C20.235 58.6915 19.3901 58.6915 18.8749 58.362C18.3185 58.0012 17.9785 57.4036 17.9373 56.744C17.9063 56.1363 18.3288 55.3942 19.1737 53.9104L39.2729 18.4829C40.1281 16.9785 40.5609 16.2263 41.107 15.9481C41.6943 15.6493 42.395 15.6493 42.9823 15.9481C43.5284 16.2263 43.9612 16.9785 44.8164 18.4829L48.9484 25.6958L48.9695 25.7326C49.8932 27.3465 50.3616 28.1649 50.5661 29.0239C50.7928 29.9616 50.7928 30.9508 50.5661 31.8885C50.36 32.754 49.8964 33.5784 48.9587 35.2167L38.4011 53.8795L38.3738 53.9273C37.444 55.5545 36.9728 56.3793 36.3197 57.0014C35.6087 57.6817 34.7535 58.176 33.8158 58.4547C32.9605 58.6915 32.0023 58.6915 30.0857 58.6915ZM50.6424 58.6915H62.3063C64.0271 58.6915 64.8928 58.6915 65.4083 58.3519C65.9645 57.9911 66.3147 57.3829 66.346 56.7239C66.3756 56.1358 65.9623 55.4225 65.1525 54.025C65.1245 53.9774 65.0966 53.929 65.0681 53.8797L59.2256 43.8848L59.1591 43.7723C58.3381 42.3839 57.9237 41.6828 57.3914 41.4119C56.8044 41.113 56.1135 41.113 55.5265 41.4119C54.9906 41.69 54.5579 42.4216 53.7027 43.8951L47.8809 53.89L47.8609 53.9244C47.0087 55.3956 46.5828 56.1307 46.6135 56.7339C46.6547 57.3935 46.9947 58.0012 47.5511 58.362C48.0561 58.6915 48.9216 58.6915 50.6424 58.6915Z" fill="#E84142"/>
</svg>
