<svg width="84" height="84" viewBox="0 0 84 84" fill="none" xmlns="http://www.w3.org/2000/svg">
<path d="M42 84C65.196 84 84 65.196 84 42C84 18.804 65.196 0 42 0C18.804 0 0 18.804 0 42C0 65.196 18.804 84 42 84Z" fill="#FF0420"/>
<path d="M30.4614 53.7602C27.9282 53.7602 25.8527 53.1503 24.2347 51.9308C22.6382 50.6895 21.8398 48.9255 21.8398 46.6388C21.8398 46.1597 21.8931 45.5717 21.9994 44.8748C22.2763 43.3069 22.6701 41.4231 23.181 39.2235C24.6285 33.2346 28.3646 30.2402 34.3891 30.2402C36.0283 30.2402 37.4971 30.5233 38.7956 31.0896C40.0942 31.6339 41.116 32.4615 41.8611 33.5721C42.6062 34.6611 42.9788 35.9678 42.9788 37.4922C42.9788 37.9495 42.9255 38.5266 42.819 39.2235C42.4998 41.1617 42.1166 43.0455 41.6696 44.8748C40.9245 47.8583 39.6366 50.0906 37.8057 51.5715C35.975 53.0306 33.5269 53.7602 30.4614 53.7602ZM30.9085 49.0562C32.1006 49.0562 33.1118 48.6968 33.9421 47.9781C34.7935 47.2596 35.4003 46.1597 35.7622 44.6788C36.2517 42.6317 36.6243 40.846 36.8797 39.3216C36.9649 38.8641 37.0074 38.3959 37.0074 37.9168C37.0074 35.9351 35.9964 34.9442 33.974 34.9442C32.7819 34.9442 31.7601 35.3035 30.9085 36.0222C30.0782 36.7408 29.4822 37.8407 29.1203 39.3216C28.7371 40.7807 28.3539 42.5663 27.9708 44.6788C27.8857 45.1144 27.843 45.5717 27.843 46.0508C27.843 48.0544 28.8648 49.0562 30.9085 49.0562Z" fill="white"/>
<path d="M44.446 53.4332C44.2118 53.4332 44.0309 53.3569 43.9031 53.2043C43.7967 53.0301 43.7648 52.8342 43.8073 52.6163L48.2139 31.3832C48.2564 31.1436 48.3735 30.9475 48.5652 30.7952C48.7567 30.6426 48.959 30.5664 49.1719 30.5664H57.6658C60.0287 30.5664 61.9232 31.0673 63.3496 32.0691C64.7972 33.0709 65.521 34.5191 65.521 36.4138C65.521 36.9582 65.4571 37.5244 65.3294 38.1124C64.7972 40.6169 63.7222 42.468 62.1042 43.6658C60.5077 44.8635 58.3149 45.4624 55.5263 45.4624H51.2154L49.7466 52.6163C49.7041 52.8559 49.587 53.052 49.3953 53.2043C49.2038 53.3569 49.0015 53.4332 48.7887 53.4332H44.446ZM55.7497 40.9545C56.6438 40.9545 57.4208 40.704 58.0809 40.2032C58.762 39.7022 59.209 38.9835 59.4221 38.0471C59.4859 37.6769 59.5178 37.3502 59.5178 37.0671C59.5178 36.4356 59.3369 35.9565 58.975 35.6297C58.613 35.2813 57.9957 35.1071 57.1228 35.1071H53.2911L52.0776 40.9545H55.7497Z" fill="white"/>
</svg>
