<svg width="200" height="200" viewBox="0 0 200 200" fill="none" xmlns="http://www.w3.org/2000/svg">
<circle cx="100" cy="100" r="100" fill="white"/>
<path d="M153.554 68.7793L153.409 127.112L98.9766 158.4L98.9911 100.278L153.554 68.7793Z" fill="#FDFDFD" stroke="#413D42" stroke-width="2" stroke-miterlimit="10" stroke-linecap="round" stroke-linejoin="round"/>
<path d="M98.9671 158.4L47.361 128.943L47.2012 70.3555L98.9817 100.277L98.9671 158.4Z" fill="#FDFDFD" stroke="#413D42" stroke-width="2" stroke-miterlimit="10" stroke-linejoin="round"/>
<path d="M98.9817 100.278L47.2012 70.3564L101.582 38.4004L153.544 68.78L98.9817 100.278Z" fill="#FDFDFD" stroke="#413D42" stroke-width="2" stroke-miterlimit="10" stroke-linecap="round" stroke-linejoin="round"/>
<path d="M126.212 53.1484L72.1289 84.7412" stroke="#413D42" stroke-width="2" stroke-miterlimit="10"/>
<path d="M136.135 97.3136L136.113 98.2612C136.069 100.109 135.132 101.793 133.643 102.709L123.473 108.951C121.846 109.953 119.826 108.677 119.826 106.664V105.905C119.826 104.197 120.669 102.623 122.035 101.754L132.582 95.0581C134.181 94.0479 136.186 95.3166 136.135 97.3136Z" fill="#FDFDFD" stroke="#413D42" stroke-width="2" stroke-miterlimit="10" stroke-linecap="round" stroke-linejoin="round"/>
<path d="M65.0745 113.422L70.5172 123.2L81.4453 106.018" stroke="#413D42" stroke-width="2" stroke-linecap="round" stroke-linejoin="round"/>
</svg>
