<svg width="24" height="24" viewBox="0 0 24 24" fill="none" xmlns="http://www.w3.org/2000/svg">
<circle cx="12" cy="12" r="12" fill="#FF4A4A"/>
<path d="M11.416 7.33301H7.33268C7.02326 7.33301 6.72652 7.45592 6.50772 7.67472C6.28893 7.89351 6.16602 8.19026 6.16602 8.49967V16.6663C6.16602 16.9758 6.28893 17.2725 6.50772 17.4913C6.72652 17.7101 7.02326 17.833 7.33268 17.833H15.4993C15.8088 17.833 16.1055 17.7101 16.3243 17.4913C16.5431 17.2725 16.666 16.9758 16.666 16.6663V12.583" stroke="white" stroke-linecap="round" stroke-linejoin="round"/>
<path d="M15.791 6.45814C16.0231 6.22608 16.3378 6.0957 16.666 6.0957C16.9942 6.0957 17.309 6.22608 17.541 6.45814C17.7731 6.6902 17.9035 7.00495 17.9035 7.33314C17.9035 7.66133 17.7731 7.97608 17.541 8.20814L11.9993 13.7498L9.66602 14.3331L10.2493 11.9998L15.791 6.45814Z" stroke="white" stroke-linecap="round" stroke-linejoin="round"/>
</svg>
