<svg width="40" height="40" viewBox="0 0 40 40" fill="none" xmlns="http://www.w3.org/2000/svg">
<circle cx="20" cy="20" r="20" fill="#F0F0F0"/>
<path d="M7.77673 20.7193C7.5486 20.7193 7.28936 20.7504 7.09752 20.7815L7.06641 20.7504C7.06641 17.6447 9.07294 14.1553 11.4943 12.5376C11.2661 12.3095 10.9758 12.1176 10.7528 11.988V11.9569C12.7905 10.1163 17.1561 9.20894 20.0959 9.69113C21.1329 9.17264 22.3928 8.88229 23.6216 8.9134L23.6527 8.94451C23.5542 9.13635 23.3935 9.52521 23.3313 9.88297C24.5912 9.85186 27.5984 10.6244 28.568 11.2725V11.3347C28.3087 11.4955 28.0495 11.6925 27.8265 11.9154C30.5434 13.502 32.1922 15.4722 33.001 18.2513L32.9699 18.2824C32.7107 18.3135 32.4825 18.3809 32.2907 18.4432C32.3529 18.8631 32.4203 19.7705 32.4203 20.1905C32.4203 26.1738 26.857 31.089 20.1011 31.089C13.5319 31.0994 8.10338 26.4745 7.77673 20.7193ZM28.6665 25.4427C28.6665 24.7635 28.0858 24.3124 27.2096 24.3124C26.8207 24.3124 26.2089 24.3746 25.9496 24.3746C24.7208 24.3746 23.7513 23.4673 23.7513 22.3059C23.7513 21.1445 24.7208 20.2371 25.9496 20.2371C27.9562 20.2371 29.7657 21.8548 29.9575 23.5658C30.1183 23.0162 30.2168 22.4044 30.2168 21.8496C30.2168 18.5831 28.5006 16.3537 25.0112 15.4152L24.9801 15.3841C25.0786 15.156 25.2082 14.9952 25.3689 14.8034L25.3326 14.7723C24.5238 14.7412 23.5853 14.8708 22.9061 15.13L22.875 15.0989C22.9061 14.8086 23.0046 14.4871 23.1654 14.1916L23.1343 14.1605C22.0351 14.2901 20.9048 14.6478 20.0959 15.0989C19.2871 14.6478 18.1568 14.2901 17.0576 14.1605L17.0265 14.1916C17.1872 14.4819 17.2857 14.8034 17.3169 15.0989L17.2857 15.13C16.6065 14.8708 15.6681 14.7412 14.8592 14.7723L14.8281 14.8034C14.9889 14.9952 15.1185 15.1611 15.217 15.3841L15.1859 15.4152C11.8209 16.3537 9.98029 18.5831 9.98029 21.8496C9.98029 22.3992 10.0788 23.0162 10.2395 23.5658C10.4314 21.8496 12.2461 20.2371 14.2474 20.2371C15.4762 20.2371 16.4458 21.1445 16.4458 22.3059C16.4458 23.4725 15.4762 24.3746 14.2474 24.3746C13.9882 24.3746 13.3764 24.3124 12.9875 24.3124C12.1165 24.3124 11.5306 24.7635 11.5306 25.4427C11.5306 27.8329 15.9584 30.1298 20.1011 30.1298C24.2438 30.1298 28.6665 27.8329 28.6665 25.4427ZM15.02 21.9481C15.02 21.5593 14.7296 21.2689 14.3408 21.2689C13.983 21.2689 13.6926 21.5593 13.6926 21.9481C13.6926 22.3059 13.983 22.5962 14.3408 22.5962C14.7296 22.5962 15.02 22.3059 15.02 21.9481ZM18.3849 24.3435C18.3849 24.0532 18.6131 23.825 18.9345 23.825C19.2923 23.825 19.5463 24.0843 20.1011 24.0843C20.6559 24.0843 20.91 23.825 21.2677 23.825C21.5892 23.825 21.8173 24.0532 21.8173 24.3435C21.8173 24.862 21.0759 25.282 20.1011 25.282C19.1264 25.282 18.3849 24.862 18.3849 24.3435ZM18.7064 21.7563C18.7064 21.1445 19.2249 20.7867 20.0959 20.7867C20.967 20.7867 21.4855 21.1445 21.4855 21.7563C21.4855 22.337 20.8374 22.8555 20.0959 22.8555C19.3545 22.8555 18.7064 22.3681 18.7064 21.7563ZM26.4992 21.9481C26.4992 21.5593 26.2089 21.2689 25.8511 21.2689C25.4623 21.2689 25.1719 21.5593 25.1719 21.9481C25.1719 22.3059 25.4623 22.5962 25.8511 22.5962C26.2089 22.5962 26.4992 22.3059 26.4992 21.9481Z" fill="#E076FF"/>
</svg>
