<svg width="1058" height="660" viewBox="0 0 1058 660" fill="none" xmlns="http://www.w3.org/2000/svg">
<path d="M225 153.805V506.201C252.514 501.846 280.096 498.245 307.723 495.274V365.074C331.833 364.59 355.988 364.23 380.165 363.96L411.728 362.781L380.183 377.474V488.916C407.9 487.003 435.65 485.675 463.412 484.854C463.423 382.1 463.423 279.358 463.423 176.615C435.661 175.67 407.922 174.139 380.205 172.013V294.696C356.022 294.201 331.861 293.604 307.745 292.907V165.092C280.107 161.93 252.514 158.16 225 153.805Z" fill="#FF0003"/>
<path d="M504.689 177.572V484.021C532.293 483.717 559.909 483.931 587.513 484.651C587.502 382.055 587.502 279.448 587.502 176.84C559.909 177.673 532.293 177.92 504.689 177.572Z" fill="#FF0003"/>
<path d="M683.853 240.545C683.864 323.47 683.864 406.407 683.864 489.344L683.853 489.355C711.558 491.347 739.219 493.913 766.834 497.142V252.199L727.469 237.847L766.834 235.65C788.936 234.074 810.992 232.296 833.004 230.327V153.805C761.467 165.137 689.446 172.44 617.29 175.715V243.009C639.492 242.413 661.684 241.592 683.853 240.545Z" fill="#FF0003"/>
</svg>
