<svg xmlns="http://www.w3.org/2000/svg" xmlns:xlink="http://www.w3.org/1999/xlink" width="40" height="40" version="1.1" id="Layer_1" x="0px" y="0px" viewBox="0 0 40 40" enable-background="new 0 0 40 40" xml:space="preserve">
  <g>
    <circle fill="#140CB8" cx="20" cy="20" r="18.7" />
    <circle fill="#3433D6" cx="20" cy="20" r="17.9" />
    <g>
      <path fill="#58595B" d="M20,40C9,40,0,31,0,20S9,0,20,0s20,9,20,20S31,40,20,40z M20,0.2C9.1,0.2,0.2,9.1,0.2,20S9.1,39.8,20,39.8    S39.8,30.9,39.8,20S30.9,0.2,20,0.2z" />
    </g>
    <path fill="#5C5DDC" d="M31.3,6.1L5.9,31c0.7,0.8,1.4,1.6,2.2,2.3l25.5-25C32.8,7.5,32.1,6.8,31.3,6.1z" />
    <rect x="21.6" y="17.7" fill="#FFFFFF" width="3.7" height="3.6" />
    <rect x="25.7" y="19.5" fill="#FFFFFF" width="1.7" height="1.4" />
    <path fill="#5C5DDC" d="M8.9,34c0.4,0.3,0.8,0.6,1.2,0.9L35,10.3c-0.2-0.4-0.5-0.7-0.8-1.1L8.9,34z" />
    <g>
      <polygon fill="#140CB8" points="33.1,22.1 34.2,22.1 34.2,19.1 34.9,19.1 36,17.9 31.5,17.9 31.5,19.1 33.2,19.1   " />
      <path fill="#FFFFFF" d="M34.4,22.3h-1.6l0.1-3h-1.6v-1.7h5.3L35,19.3h-0.5V22.3z M33.3,21.8h0.6v-3h0.8l0.7-0.7h-3.6v0.7h1.6    L33.3,21.8z" />
    </g>
    <g>
      <g>
        <rect x="26.8" y="17.9" fill="#140CB8" width="4.3" height="1.2" />
        <path fill="#FFFFFF" d="M31.4,19.3h-4.8v-1.7h4.8V19.3z M27,18.8h3.8v-0.7H27V18.8z" />
      </g>
      <g>
        <rect x="26.8" y="19.4" fill="#140CB8" width="4.3" height="1.2" />
        <path fill="#FFFFFF" d="M31.4,20.8h-4.8v-1.7h4.8V20.8z M27,20.3h3.8v-0.7H27V20.3z" />
      </g>
      <g>
        <rect x="26.8" y="20.9" fill="#140CB8" width="4.3" height="1.2" />
        <path fill="#FFFFFF" d="M31.4,22.3h-4.8v-1.7h4.8V22.3z M27,21.8h3.8v-0.7H27V21.8z" />
      </g>
    </g>
    <g>
      <g>
        <path fill="#140CB8" d="M26.2,20.3c0,0-0.3-0.2,0-0.5l0,0c0.2-0.2,0.3-0.5,0.3-0.8c0-0.6-0.3-1-0.9-1h-3.4v4.2h3.4     c0.6,0,0.9-0.5,0.9-1C26.5,20.7,26.3,20.5,26.2,20.3L26.2,20.3z M25.1,20.9h-1.6c-0.1,0-0.2-0.1-0.2-0.2c0-0.1,0.1-0.2,0.2-0.2     h1.6c0.1,0,0.2,0.1,0.2,0.2C25.3,20.8,25.2,20.9,25.1,20.9z M25.1,19.5h-1.6c-0.1,0-0.2-0.1-0.2-0.2c0-0.1,0.1-0.2,0.2-0.2h1.6     c0.1,0,0.2,0.1,0.2,0.2C25.3,19.4,25.2,19.5,25.1,19.5z" />
      </g>
      <g>
        <g>
          <path fill="#FFFFFF" d="M25.6,22.3h-3.6v-4.7h3.6c0.7,0,1.1,0.5,1.1,1.3c0,0.3-0.1,0.5-0.2,0.7l0,0l-0.2,0.3      C26.3,20,26.3,20,26.3,20l0.5,0.3l-0.2,0.1c0.1,0.2,0.2,0.4,0.2,0.7C26.7,21.8,26.2,22.3,25.6,22.3z M22.4,21.8h3.1      c0.5,0,0.7-0.4,0.7-0.8c0-0.2-0.1-0.5-0.3-0.6l-0.3-0.3l0.1,0c0,0,0,0,0,0c0-0.1,0-0.2,0-0.3l-0.1,0l0.3-0.3      c0.2-0.1,0.2-0.4,0.2-0.6c0-0.4-0.2-0.8-0.7-0.8h-3.1V21.8z M25.1,21.2h-1.6c-0.3,0-0.5-0.2-0.5-0.5c0-0.3,0.2-0.5,0.5-0.5h1.6      c0.3,0,0.5,0.2,0.5,0.5C25.5,21,25.3,21.2,25.1,21.2z M25.1,19.8h-1.6c-0.3,0-0.5-0.2-0.5-0.5c0-0.3,0.2-0.5,0.5-0.5h1.6      c0.3,0,0.5,0.2,0.5,0.5C25.5,19.6,25.3,19.8,25.1,19.8z" />
        </g>
      </g>
    </g>
    <g>
      <path fill="#140CB8" d="M21.7,17.9h-1.1v1.5h-2.1v-1.5h-1.1c0,0,0,1.6,0,1.9c0,0.2,0,0.8,0.9,0.8c0.8,0,2.2,0,2.2,0V21l-2.8-0.1    l-1.1,1.1c0,0,3.4,0,3.9,0c0.5,0,1.1-0.1,1.1-0.9C21.7,20.5,21.7,17.9,21.7,17.9z" />
      <path fill="#FFFFFF" d="M20.5,22.3h-4.5l1.6-1.6c-0.3-0.1-0.5-0.4-0.5-0.9v-2.1h1.5v1.5h1.6v-1.5h1.5v3.5    C21.9,21.7,21.7,22.3,20.5,22.3z M17.2,21.8h3.3c0.8,0,0.9-0.3,0.9-0.6v-3.1h-0.6v1.5h-2.6v-1.5h-0.6v1.6c0,0.3,0,0.5,0.6,0.5h2.5    v0.9l-2.9-0.1L17.2,21.8z" />
    </g>
    <polygon fill="#140CB8" points="33.1,22.1 34.2,22.1 34.2,19.1 34.9,19.1 36,17.9 31.5,17.9 31.5,19.1 33.2,19.1  " />
    <g>
      <rect x="26.8" y="17.9" fill="#140CB8" width="4.3" height="1.2" />
      <rect x="26.8" y="19.4" fill="#140CB8" width="4.3" height="1.2" />
      <rect x="26.8" y="20.9" fill="#140CB8" width="4.3" height="1.2" />
    </g>
    <g>
      <path fill="#140CB8" d="M26.2,20.3c0,0-0.3-0.2,0-0.5l0,0c0.2-0.2,0.3-0.5,0.3-0.8c0-0.6-0.3-1-0.9-1h-3.4v4.2h3.4    c0.6,0,0.9-0.5,0.9-1C26.5,20.7,26.3,20.5,26.2,20.3L26.2,20.3z M25.1,20.9h-1.6c-0.1,0-0.2-0.1-0.2-0.2c0-0.1,0.1-0.2,0.2-0.2    h1.6c0.1,0,0.2,0.1,0.2,0.2C25.3,20.8,25.2,20.9,25.1,20.9z M25.1,19.5h-1.6c-0.1,0-0.2-0.1-0.2-0.2c0-0.1,0.1-0.2,0.2-0.2h1.6    c0.1,0,0.2,0.1,0.2,0.2C25.3,19.4,25.2,19.5,25.1,19.5z" />
    </g>
    <path fill="#140CB8" d="M21.7,17.9h-1.1v1.5h-2.1v-1.5h-1.1c0,0,0,1.6,0,1.9c0,0.2,0,0.8,0.9,0.8c0.8,0,2.2,0,2.2,0V21h-2.8   l-1.1,1.1c0,0,3.4,0,3.9,0c0.5,0,1.1-0.1,1.1-0.9C21.7,20.5,21.7,17.9,21.7,17.9z" />
    <g>
      <polygon fill="#140CB8" points="17.2,21 16.1,22 12.7,22 12.7,17.9 13.9,17.9 13.9,21   " />
      <path fill="#FFFFFF" d="M16.3,22.3h-3.9v-4.7h1.8v3.1H18L16.3,22.3z M13.1,21.7h3l0.4-0.3h-2.8v-3.1h-0.5V21.7z" />
    </g>
    <g>
      <path fill="#140CB8" d="M11.6,18H8.8c-0.4,0-0.7,0.3-0.7,0.7v2.7c0,0.4,0.3,0.7,0.7,0.7h2.8c0.4,0,0.7-0.3,0.7-0.7v-2.7    C12.3,18.3,12,18,11.6,18z" />
      <path fill="#FFFFFF" d="M11.6,22.4H8.8c-0.6,0-1-0.5-1-1v-2.7c0-0.6,0.5-1,1-1h2.8c0.6,0,1,0.5,1,1v2.7    C12.7,22,12.2,22.4,11.6,22.4z M8.8,18.3c-0.2,0-0.4,0.2-0.4,0.4v2.7c0,0.2,0.2,0.4,0.4,0.4h2.8c0.2,0,0.4-0.2,0.4-0.4v-2.7    c0-0.2-0.2-0.4-0.4-0.4H8.8z" />
    </g>
    <polygon fill="#140CB8" points="17.2,21 16.1,22.1 12.7,22.1 12.7,17.9 13.9,17.9 13.9,21  " />
    <g>
      <g>
        <path fill="#140CB8" d="M6.8,17.9H3.3v4.2h1.2v-1.5h2.3c0.5,0,0.8-0.4,0.8-0.8v-1C7.6,18.3,7.2,17.9,6.8,17.9z M6.2,19.5H4.8     c-0.1,0-0.2-0.1-0.2-0.2c0-0.1,0.1-0.2,0.2-0.2h1.4c0.1,0,0.2,0.1,0.2,0.2C6.4,19.4,6.4,19.5,6.2,19.5z" />
      </g>
      <g>
        <g>
          <path fill="#FFFFFF" d="M4.8,22.4H3v-4.8h3.8c0.6,0,1.2,0.5,1.2,1.2v1c0,0.6-0.5,1.2-1.2,1.2h-2V22.4z M3.7,21.8h0.5v-1.5h2.6      c0.3,0,0.5-0.2,0.5-0.5v-1c0-0.3-0.2-0.5-0.5-0.5H3.7V21.8z M6.2,19.8H4.8c-0.3,0-0.5-0.2-0.5-0.5s0.2-0.5,0.5-0.5h1.4      c0.3,0,0.5,0.2,0.5,0.5S6.5,19.8,6.2,19.8z" />
        </g>
      </g>
    </g>
    <g>
      <path fill="#140CB8" d="M6.8,17.9H3.3v4.2h1.2v-1.5h2.3c0.5,0,0.8-0.4,0.8-0.8v-1C7.6,18.3,7.2,17.9,6.8,17.9z M6.2,19.5H4.8    c-0.1,0-0.2-0.1-0.2-0.2c0-0.1,0.1-0.2,0.2-0.2h1.4c0.1,0,0.2,0.1,0.2,0.2C6.4,19.4,6.4,19.5,6.2,19.5z" />
    </g>
    <path fill="#140CB8" d="M11.6,18H8.8c-0.4,0-0.7,0.3-0.7,0.7v2.7c0,0.4,0.3,0.7,0.7,0.7h2.8c0.4,0,0.7-0.3,0.7-0.7v-2.7   C12.3,18.3,12,18,11.6,18z" />
    <g>
      <path fill="#FFFFFF" d="M11.2,21H9.3v-1.9h1.9V21z M9.9,20.3h0.6v-0.6H9.9V20.3z" />
    </g>
    <rect x="9.6" y="19.4" fill="#3433D6" width="1.2" height="1.2" />
  </g>
</svg>