<svg version="1.2" xmlns="http://www.w3.org/2000/svg" viewBox="0 0 2000 2000" width="300" height="300"><style>.a{fill:#fff}</style><path  d="m2000 2000h-2000v-2000h2000z"/><path class="a" d="m1047 0h-680.7l-366.3 351.5v717.5z"/><path class="a" d="m1237.2 38l38.4-38h-243.6l-139.2 138c-13.4-3.4-27.4-5.2-41.9-5.2-92.9 0-168.1 75.2-168.1 168.1 0 13.9 1.7 27.5 4.9 40.5l-366.3 363.2-321.4 328v241.5l385.7-391.8z"/><path class="a" d="m2017.6 0v1819.3c0 109.5-88.8 198.2-198.3 198.2l-1769.2 3.2c-17.3 0-34.1-2.2-50.1-6.3l527.1-525 481.7 278.1 657.1-379.3v-758.8l-179-103.3 0.9-0.9z"/><path class="a" d="m198.3 0c-109.5 0-198.3 88.8-198.3 198.3v171.7l373.2-370z"/><path class="a" d="m1348.4 793.4c0 44.6 26.5 82.9 64.7 100.2v345.7l-413.8 238.8-94.8-54.7c1.4-7 2.2-14.3 2.2-21.8 0-60.7-49.3-110-110.1-110-60.7 0-110 49.3-110 110 0 60.8 49.3 110.1 110 110.1 20.7 0 39.9-5.8 56.4-15.7l155.8 90 499.8-288.6v-406.1c35.5-18.3 59.9-55.2 59.9-97.9 0-60.8-49.3-110.1-110.1-110.1-60.8 0-110 49.3-110 110.1z"/><path class="a" d="m580 1261.5c92.8 0 168.1-75.3 168.1-168.1 0-21.3-4-41.7-11.2-60.5l747.8-741.4 294-291.5h-219.6l-126.9 125.8-811.4 804.5c-13.1-3.3-26.7-5-40.8-5-92.8 0-168.1 75.3-168.1 168.1 0 13.6 1.6 26.7 4.7 39.3l-416.6 412.3v217.8l518.2-513.1c19.1 7.6 40 11.8 61.8 11.8z"/></svg>