<svg width="40" height="40" viewBox="0 0 40 40" fill="none" xmlns="http://www.w3.org/2000/svg">
<circle cx="20" cy="20" r="20" fill="#272528"/>
<g clip-path="url(#clip0_3868_1536)">
<path d="M34.725 11.7468C34.7119 11.511 34.7643 11.249 34.8036 11.0001C34.8691 10.6463 34.9477 10.2795 34.8166 10.0044C34.738 9.82102 34.4891 9.65071 34.2271 9.48041C33.9652 9.297 33.6507 9.1005 33.4542 8.81229C33.2708 8.56338 33.1922 8.23587 33.1136 7.93456C33.035 7.60705 32.9564 7.30573 32.773 7.12233C32.5896 6.93892 32.2882 6.86032 31.9608 6.78172C31.6594 6.70312 31.3319 6.62452 31.0831 6.4411C30.7948 6.23151 30.5983 5.9302 30.4149 5.66819C30.2446 5.40618 30.0743 5.15727 29.8909 5.07867C29.6027 4.94766 29.2359 5.02626 28.8953 5.09177C28.6463 5.14417 28.3844 5.19657 28.1486 5.17037C27.9521 5.15727 27.7556 5.11797 27.5721 5.09177C27.3494 5.05247 27.1398 5.02626 26.9564 5.02626C26.7861 5.02626 26.6289 5.05247 26.4979 5.13107C26.3275 5.23587 26.2096 5.48478 26.1049 5.69439L24.7031 8.53717C25.8952 8.95639 27.0874 9.3625 28.3057 9.80792C29.0656 10.1354 29.6944 10.738 30.0219 11.4979C30.3101 12.2315 30.5459 12.9127 30.821 13.6202L31.3843 15.1922L34.201 13.8035C34.4368 13.6988 34.6595 13.5677 34.7774 13.3712C34.9346 13.1223 34.8691 12.7424 34.8036 12.3101C34.7643 12.1267 34.738 11.9302 34.725 11.7468Z" fill="white"/>
<path d="M17.2488 28.0562C17.0785 27.5453 16.9344 27.1654 16.7641 26.7986C16.3842 25.9864 15.8864 25.2396 15.2969 24.5584C14.6811 23.8772 13.9476 23.3139 13.1484 22.9208C12.7947 22.7506 12.3755 22.6064 11.8646 22.4623C11.8122 22.4492 11.7598 22.4492 11.6943 22.4492C11.5763 22.4492 11.4453 22.4755 11.3143 22.5148C11.1309 22.5671 10.7641 22.7767 10.5676 22.9078C8.96937 23.9427 7.97373 24.5453 6.32308 25.4362C6.32308 25.4362 6.30998 25.4492 6.29688 25.4492C6.34928 25.4492 6.38858 25.4623 6.44098 25.4623C6.63749 25.4885 6.82089 25.5016 7.00431 25.5016C7.16151 25.5016 7.35801 25.4492 7.55452 25.3969C7.80343 25.3313 8.09164 25.2527 8.41915 25.2527C8.65496 25.2527 8.86457 25.292 9.07417 25.3706C9.49338 25.5671 9.7161 25.8815 9.8995 26.1174L9.965 26.209C10.1222 26.4318 10.2925 26.6806 10.4628 26.7855C10.6069 26.8772 10.8689 26.9427 11.144 27.0082L11.2226 27.0344C11.5502 27.1261 11.9432 27.2309 12.2969 27.5584C12.6375 27.9121 12.7423 28.3183 12.834 28.6457L12.8602 28.7374C12.9257 28.9994 12.9912 29.2615 13.0829 29.4055C13.2008 29.5759 13.4366 29.7462 13.6593 29.9034L13.7511 29.9689C13.9999 30.1392 14.3013 30.3619 14.4978 30.768C14.7204 31.3706 14.5895 31.8815 14.4846 32.3008C14.4323 32.4973 14.3799 32.6938 14.3799 32.851C14.3799 33.0344 14.406 33.2178 14.4192 33.4012C15.3624 31.7113 16.3318 30.0082 16.6069 29.5497C16.7904 29.2483 17.1178 28.7767 17.2357 28.4885C17.3013 28.3576 17.2881 28.1872 17.2488 28.0562Z" fill="white"/>
<path d="M13.962 34.7373C14.3026 34.3705 13.8178 33.3094 13.8178 32.9033C13.8178 32.5365 13.8703 32.2089 13.8964 31.9077C13.9357 31.6063 13.9357 31.3182 13.8178 31.1085C13.7131 30.9252 13.4641 30.7548 13.2022 30.5845C12.9401 30.4142 12.6257 30.2308 12.3899 29.9164C12.141 29.5758 12.0886 29.2221 12.01 28.9208C11.9314 28.6194 11.8397 28.3575 11.6825 28.2133C11.5384 28.0561 11.2633 27.9645 10.9751 27.8859C10.6738 27.7941 10.3332 27.7417 9.97944 27.5059C9.66503 27.257 9.48162 26.9557 9.31132 26.6937C9.03621 26.2745 8.97071 26.1828 8.7873 26.078C8.5122 25.9208 8.19778 25.947 7.98818 25.9994C7.73927 26.0517 7.42485 26.1042 7.05804 26.1042C6.59953 26.1042 5.48599 25.6063 5.15848 25.9338C4.83097 26.2614 5.30259 27.3618 5.31569 27.7679C5.31569 28.1478 5.27639 28.4884 5.23709 28.7636C5.18468 28.9731 5.15848 29.2875 5.31569 29.5627C5.42049 29.7461 5.5253 29.8116 5.93141 30.0867C6.19342 30.257 6.50783 30.4404 6.74364 30.7548C6.99254 31.0954 7.04494 31.4491 7.12355 31.7505C7.20215 32.0517 7.29385 32.3138 7.45106 32.4579C7.59516 32.6151 7.87027 32.7068 8.15848 32.7854C8.45979 32.8771 8.80041 32.9295 9.15411 33.1653C9.46853 33.4142 9.65193 33.7155 9.82224 33.9775C9.99254 34.2396 10.1497 34.4884 10.3463 34.5933C10.5559 34.7112 10.8441 34.7112 11.1454 34.6719C11.4467 34.6457 11.7742 34.567 12.141 34.5933C12.6781 34.6063 13.6345 35.091 13.962 34.7373Z" fill="white"/>
<path d="M32.0247 19.0178C32.0116 18.7689 31.8151 18.389 31.7103 18.0352L30.1776 13.8169C29.9286 13.1225 29.6797 12.3889 29.4308 11.7339C29.1688 11.1182 28.6579 10.6073 28.0422 10.3322L23.8631 8.76011L21.7671 7.96098C21.4134 7.84308 21.0597 7.64658 20.7583 7.63347C20.4439 7.60728 20.1164 7.72518 19.8806 7.96098C17.7321 10.044 15.5837 12.1269 13.5007 14.2623C12.4526 15.3234 11.4046 16.3976 10.3828 17.485L9.97666 17.9173C9.97666 17.9173 11.2605 18.4021 11.7059 18.5855C12.6099 18.9392 13.5007 19.306 14.3915 19.6859C15.2823 20.0658 16.1601 20.4588 17.0509 20.8912C17.9548 21.3365 18.7408 22.0571 19.1339 22.961C18.5836 22.2667 17.719 21.8082 16.8413 21.4676C15.9504 21.127 15.0072 20.8126 14.0902 20.5374C13.1601 20.2623 12.243 19.9742 11.326 19.6728C10.8675 19.5287 10.409 19.3715 9.95046 19.2143C9.64915 19.1095 9.41334 19.1619 9.20374 19.3453C9.00723 19.5287 8.90242 19.7776 8.95483 20.0396C8.96793 20.0658 8.96793 20.1051 8.98102 20.1444L9.03343 20.3147L9.15133 20.6553L9.38714 21.3365C9.53125 21.7689 9.67535 22.2143 9.81946 22.6466C10.0946 22.4894 10.3566 22.3453 10.6317 22.2012C10.8151 22.0964 11.0771 21.9654 11.3391 21.9261C11.6011 21.8868 11.85 21.8737 12.1251 21.9785C12.5574 22.1619 12.9897 22.3453 13.409 22.5549C14.2474 22.9742 15.0204 23.5112 15.7278 24.14C16.4352 24.7689 17.0378 25.5287 17.4832 26.3802C17.706 26.7995 17.8893 27.2579 18.0465 27.6903C18.1513 27.9785 18.1513 28.2798 18.0727 28.5811C18.0334 28.7121 17.9548 28.8824 17.8893 28.9742L17.719 29.2754C17.4701 29.6816 17.2212 30.0877 16.9723 30.4807C17.588 30.7296 18.2169 30.9523 18.8457 31.1881C19.1994 31.306 19.5399 31.4894 19.8937 31.5156C20.2605 31.5418 20.6273 31.3977 20.8893 31.1357C22.9985 29.0135 25.0553 26.8519 27.112 24.6641C28.1339 23.5767 29.1819 22.5025 30.2169 21.4283L31.7889 19.83C31.933 19.5942 32.0378 19.306 32.0247 19.0178ZM24.0727 25.7383L20.4832 29.6553L22.2125 22.9217L24.3609 22.2274L24.7015 19.175L26.7976 18.6903L28.7365 11.8256L30.2955 18.8475L24.0727 25.7383Z" fill="white"/>
</g>
<defs>
<clipPath id="clip0_3868_1536">
<rect width="30" height="30" fill="white" transform="translate(5 5)"/>
</clipPath>
</defs>
</svg>
