<svg width="40" height="40" viewBox="0 0 40 40" fill="none" xmlns="http://www.w3.org/2000/svg">
<g clip-path="url(#clip0_2773_4019)">
<mask id="mask0_2773_4019" style="mask-type:alpha" maskUnits="userSpaceOnUse" x="0" y="0" width="40" height="40">
<circle cx="20" cy="20" r="20" fill="#D9D9D9"/>
</mask>
<g mask="url(#mask0_2773_4019)">
<path d="M40 0H0V40H40V0Z" fill="#8716E8"/>
<path d="M36.8651 10.3242L32.2164 10.3782H32.0002C31.0272 10.4323 30.1624 10.8107 29.5137 11.3512L26.1083 13.9999C26.1083 13.9999 26.0543 13.9999 26.0543 14.054L16.7569 21.2431V17.2972C16.7569 16.8107 16.3786 16.4323 15.8921 16.4323L6.2164 16.5404C5.72994 16.5404 5.35156 16.9188 5.35156 17.4053L5.40562 23.8377V24.6485V25.1891V25.2972C5.40562 25.4053 5.40562 25.5134 5.40562 25.6756C5.40562 25.7296 5.40562 25.7296 5.40562 25.7837C5.40562 25.8377 5.40562 25.8377 5.40562 25.8917C5.40562 26.0539 5.45967 26.2161 5.45967 26.2701C5.45967 26.4323 5.51372 26.5404 5.56778 26.7026C5.67589 27.0809 5.784 27.4053 5.94616 27.6215C6.05426 27.8377 6.16237 27.9999 6.32452 28.2161C6.64888 28.7025 7.02721 29.0269 7.35157 29.2431C8.27049 29.9458 9.67587 30.4323 11.2434 30.4323C12.811 30.4323 14.2705 29.9458 15.1353 29.1891C15.2434 29.135 15.3516 29.0269 15.4597 28.9729C15.73 28.7566 16.1624 28.3242 16.6489 27.8377C16.9732 27.5134 17.2975 27.135 17.5137 26.9188L26.1624 17.8377C26.2164 17.7837 26.2705 17.7296 26.2705 17.6756L28.1083 15.7296L30.2705 13.5134L30.7029 13.0269C31.4597 12.3242 32.4326 11.8917 33.5677 11.8917H35.5677H36.9191C37.3516 11.8917 37.6759 11.5134 37.6759 11.0809C37.6759 10.7026 37.2975 10.3242 36.8651 10.3242Z" fill="white"/>
</g>
</g>
<defs>
<clipPath id="clip0_2773_4019">
<rect width="40" height="40" fill="white"/>
</clipPath>
</defs>
</svg>
