<svg width="40" height="40" viewBox="0 0 40 40" fill="none" xmlns="http://www.w3.org/2000/svg">
<circle cx="20" cy="20" r="20" fill="#322F33"/>
<path fill-rule="evenodd" clip-rule="evenodd" d="M25.9987 15H13.9996C11.2384 15 9 17.2384 9 19.9996C9 22.7608 11.2384 24.9992 13.9996 24.9992H25.9987C28.7599 24.9992 30.9983 22.7608 30.9983 19.9996C30.9983 17.2384 28.7599 15 25.9987 15ZM13.9996 14C10.6861 14 8 16.6861 8 19.9996C8 23.3131 10.6861 25.9992 13.9996 25.9992H25.9987C29.3122 25.9992 31.9983 23.3131 31.9983 19.9996C31.9983 16.6861 29.3122 14 25.9987 14H13.9996ZM14.9995 22.9993C16.6562 22.9993 17.9993 21.6563 17.9993 19.9996C17.9993 18.3429 16.6562 16.9999 14.9995 16.9999C13.3428 16.9999 11.9998 18.3429 11.9998 19.9996C11.9998 21.6563 13.3428 22.9993 14.9995 22.9993ZM14.9995 23.9993C17.2085 23.9993 18.9993 22.2086 18.9993 19.9996C18.9993 17.7906 17.2085 15.9999 14.9995 15.9999C12.7906 15.9999 10.9998 17.7906 10.9998 19.9996C10.9998 22.2086 12.7906 23.9993 14.9995 23.9993ZM27.9987 19.9996C27.9987 21.6563 26.6556 22.9993 24.9989 22.9993C23.3422 22.9993 21.9992 21.6563 21.9992 19.9996C21.9992 18.3429 23.3422 16.9999 24.9989 16.9999C26.6556 16.9999 27.9987 18.3429 27.9987 19.9996ZM28.9987 19.9996C28.9987 22.2086 27.2079 23.9993 24.9989 23.9993C22.79 23.9993 20.9992 22.2086 20.9992 19.9996C20.9992 17.7906 22.79 15.9999 24.9989 15.9999C27.2079 15.9999 28.9987 17.7906 28.9987 19.9996Z" fill="white"/>
</svg>
